<?xml version="1.0" encoding="UTF-8"?>
<svg width="24px" height="24px" viewBox="0 0 24 24" version="1.1" xmlns="http://www.w3.org/2000/svg" xmlns:xlink="http://www.w3.org/1999/xlink">
    <title>7C124920-F661-4791-ACAC-F53019D235C7</title>
    <g id="UI-KIT" stroke="none" stroke-width="1" fill="none" fill-rule="evenodd">
        <g id="Correos_web_UIkit_04_Buttons" transform="translate(-64.000000, -5728.000000)">
            <g id="atoms/checkbox/selected" transform="translate(64.000000, 5728.000000)">
                <path d="M19,3.5 C19.4125,3.5 19.7871816,3.66928833 20.0589466,3.94105339 C20.3307117,4.21281845 20.5,4.5875 20.5,5 L20.5,5 L20.5,19 C20.5,19.4125 20.3307117,19.7871816 20.0589466,20.0589466 C19.7871816,20.3307117 19.4125,20.5 19,20.5 L19,20.5 L5,20.5 C4.5875,20.5 4.21281845,20.3307117 3.94105339,20.0589466 C3.66928833,19.7871816 3.5,19.4125 3.5,19 L3.5,19 L3.5,5 C3.5,4.5875 3.66928833,4.21281845 3.94105339,3.94105339 C4.21281845,3.66928833 4.5875,3.5 5,3.5 L5,3.5 Z" id="Path" stroke="#B38F00" fill="#FFCD00"></path>
                <g id="atoms/ico/24px/ico_check" fill="#002E6D">
                    <path d="M11.21,15.706 C11.014,15.902 10.758,15.999 10.502,15.999 C10.247,15.999 9.991,15.902 9.795,15.707 L6.794,12.709 C6.404,12.318 6.404,11.685 6.794,11.295 C7.185,10.903 7.818,10.904 8.209,11.294 L10.502,13.585 L16.734,7.352 C17.125,6.961 17.757,6.961 18.148,7.352 C18.539,7.742 18.539,8.375 18.148,8.766 L11.21,15.706 Z" id="ico_checkmark"></path>
                </g>
            </g>
        </g>
    </g>
</svg>
